<?xml version="1.0" standalone="no"?>
<!DOCTYPE svg PUBLIC "-//W3C//DTD SVG 20010904//EN"
 "http://www.w3.org/TR/2001/REC-SVG-20010904/DTD/svg10.dtd">
<svg version="1.0" xmlns="http://www.w3.org/2000/svg"
 width="736.000000pt" height="973.000000pt" viewBox="0 0 736.000000 973.000000"
 preserveAspectRatio="xMidYMid meet">

<g transform="translate(0.000000,973.000000) scale(0.100000,-0.100000)"
fill="#000000" stroke="none">
<path d="M3350 9369 c-370 -23 -766 -96 -1087 -200 -618 -200 -1073 -529
-1329 -965 -275 -467 -420 -1163 -455 -2179 -13 -374 -3 -839 26 -1235 28
-377 16 -328 169 -642 l135 -278 51 -492 c28 -271 60 -576 71 -678 10 -102 19
-188 19 -192 0 -3 31 -46 68 -95 79 -101 439 -574 614 -804 73 -96 118 -164
118 -179 0 -15 78 -120 234 -314 129 -160 274 -340 323 -401 87 -109 91 -111
288 -242 l200 -133 884 0 884 0 171 111 c94 62 182 118 196 127 14 8 117 129
230 269 113 140 260 323 327 406 84 104 123 160 123 178 0 18 117 178 400 548
220 288 400 526 400 529 0 12 119 1164 131 1267 12 100 12 101 147 375 l135
275 18 203 c56 626 61 1340 14 1902 -65 757 -216 1331 -449 1708 -404 652
-1266 1057 -2414 1132 -173 11 -455 11 -642 -1z m-676 -756 c3 -21 24 -186 46
-368 22 -181 83 -676 135 -1100 52 -423 100 -812 106 -863 13 -106 -4 -93 159
-117 58 -8 208 -30 333 -49 l228 -34 157 24 c86 13 244 37 350 52 106 16 194
31 196 33 2 2 36 267 75 589 39 322 80 657 92 745 11 88 47 375 79 639 32 263
61 481 64 484 7 6 199 -23 351 -54 377 -77 750 -212 1021 -370 l112 -64 6
-113 c3 -61 10 -686 16 -1387 l12 -1275 28 -115 c15 -63 72 -301 126 -528 l98
-412 -103 -208 c-135 -273 -215 -418 -389 -707 -562 -931 -668 -1122 -737
-1332 -23 -70 -55 -125 -207 -350 -99 -148 -184 -272 -189 -278 -6 -6 -54 36
-129 110 l-120 120 -910 0 -910 0 -120 -120 c-120 -119 -121 -120 -138 -99 -9
12 -93 135 -187 275 -143 214 -174 267 -198 339 -56 170 -233 500 -522 975
-204 335 -327 541 -400 670 -76 134 -276 531 -295 585 -10 32 -4 67 70 375
116 488 139 582 155 655 11 52 16 276 25 1150 6 597 10 1207 10 1357 0 149 4
282 9 295 6 15 47 45 122 88 324 184 765 331 1204 400 164 27 162 27 169 -17z
m-329 -7079 l189 -266 50 53 c28 30 85 91 128 137 l78 82 890 0 890 0 73 -77
c39 -43 97 -104 127 -136 l55 -58 189 265 c104 146 192 266 196 266 4 0 10
-26 14 -57 3 -32 13 -120 22 -195 l17 -137 -73 -123 c-92 -155 -187 -317 -255
-433 -43 -74 -57 -91 -79 -93 -18 -2 -93 25 -211 77 l-183 81 -287 0 -288 0
-38 35 -39 35 -130 0 -130 0 -39 -35 -38 -35 -290 0 -290 0 -74 -33 c-221
-101 -291 -128 -315 -125 -23 3 -46 36 -181 263 -85 143 -170 289 -190 324
l-36 64 23 193 c13 107 26 194 30 194 3 0 91 -120 195 -266z"/>
<path d="M1496 4973 c-3 -21 -15 -112 -27 -202 l-20 -164 24 -26 c13 -14 96
-107 184 -207 l161 -181 109 -21 c59 -11 274 -52 477 -91 202 -39 376 -71 386
-71 21 0 225 289 212 302 -4 4 -119 59 -257 123 -137 64 -324 152 -415 195
-91 43 -223 105 -295 138 -71 33 -217 101 -323 151 -107 50 -198 91 -202 91
-5 0 -11 -17 -14 -37z"/>
<path d="M5570 4883 c-254 -119 -627 -294 -1020 -478 -102 -47 -188 -90 -193
-94 -5 -5 175 -287 197 -307 1 -1 266 49 719 137 l269 52 156 176 c85 97 168
190 183 206 l28 30 -24 200 c-14 110 -25 201 -25 203 0 9 -57 -15 -290 -125z"/>
</g>
</svg>
